<svg width="94" height="70" viewBox="0 0 94 70" fill="none" xmlns="http://www.w3.org/2000/svg">
<path d="M93.8093 1.73834C93.7504 1.54179 93.6533 1.35877 93.5236 1.19974C93.3939 1.04072 93.2341 0.908796 93.0535 0.811511C92.8728 0.714226 92.6747 0.653483 92.4706 0.632751C92.2664 0.612019 92.0602 0.631704 91.8636 0.690682L74.0832 6.02467C65.2972 8.6616 56.1732 10.0009 47.0001 10.0001C44.9298 10.0001 42.8376 9.92642 40.7644 9.78912L40.6699 9.50592C40.5662 9.19483 40.3672 8.92425 40.1012 8.7325C39.8352 8.54076 39.5156 8.43757 39.1876 8.43756H32.9376C32.579 8.43773 32.2314 8.5614 31.9533 8.78775C27.8853 8.12996 23.8647 7.20703 19.9171 6.02486L2.13686 0.690877C1.73992 0.571737 1.3119 0.615162 0.946977 0.811599C0.58205 1.00804 0.310104 1.34139 0.190964 1.73834C0.0718239 2.13528 0.115249 2.5633 0.311686 2.92822C0.508123 3.29315 0.841481 3.5651 1.23843 3.68424L19.0191 9.01822C22.7383 10.1327 26.5207 11.0245 30.346 11.6889L29.9775 12.4262C29.869 12.6432 29.8125 12.8825 29.8125 13.1251C29.8125 13.3676 29.869 13.6069 29.9775 13.8239L31.3751 16.619V25.152L26.6876 32.1833V30.3126C27.102 30.3126 27.4995 30.1479 27.7925 29.8549C28.0855 29.5619 28.2501 29.1645 28.2501 28.7501V25.6251C28.2501 23.5531 27.427 21.5659 25.9619 20.1008C24.4968 18.6357 22.5096 17.8126 20.4376 17.8126C18.3656 17.8126 16.3785 18.6357 14.9134 20.1008C13.4482 21.5659 12.6251 23.5531 12.6251 25.6251V28.7501C12.6251 29.1645 12.7898 29.5619 13.0828 29.8549C13.3758 30.1479 13.7732 30.3126 14.1876 30.3126V33.4376C14.1889 34.4516 14.4365 35.4502 14.9092 36.3473C15.3818 37.2445 16.0653 38.0134 16.9009 38.5879C16.4082 39.116 15.9591 39.6831 15.5582 40.2838C15.1212 40.9392 14.8262 41.6787 14.6922 42.4549C14.5581 43.2311 14.588 44.0268 14.78 44.7907C14.9719 45.5546 15.3216 46.2699 15.8065 46.8906C16.2915 47.5113 16.901 48.0236 17.5958 48.3946C17.6478 48.4697 17.7062 48.5401 17.7705 48.6049L29.5447 60.379C30.4131 61.2523 31.4462 61.9447 32.584 62.416C33.7219 62.8874 34.942 63.1284 36.1736 63.1251H36.2517C38.5226 63.1252 40.7163 62.301 42.4251 60.8055L51.6158 52.7635L61.5197 62.6674L67.7697 68.9174C67.9148 69.0625 68.087 69.1776 68.2766 69.2562C68.4662 69.3347 68.6694 69.3751 68.8746 69.3751C69.0798 69.3751 69.2829 69.3347 69.4725 69.2562C69.6621 69.1776 69.8343 69.0625 69.9794 68.9174L79.3544 59.5424C79.4995 59.3974 79.6146 59.2251 79.6932 59.0355C79.7717 58.8459 79.8121 58.6428 79.8121 58.4376C79.8121 58.2324 79.7717 58.0292 79.6932 57.8396C79.6146 57.65 79.4995 57.4778 79.3544 57.3327L77.3037 55.2819L79.7326 47.995C79.8244 47.7197 79.8377 47.4243 79.771 47.1419C79.7044 46.8594 79.5604 46.6012 79.3552 46.396L76.2302 43.271C75.9984 43.039 75.6994 42.8859 75.3757 42.8333C75.0519 42.7807 74.7199 42.8313 74.4265 42.978L68.8187 45.7813L56.2447 40.4965C54.961 39.348 53.3832 38.579 51.6876 38.2756V33.4376C51.6877 33.1096 51.5845 32.79 51.3928 32.5239C51.201 32.2578 50.9304 32.0589 50.6193 31.9551L47.2404 30.829C47.2404 30.829 48.5626 24.1653 48.5626 24.0626V13.1108C57.5151 12.9686 66.4051 11.5915 74.981 9.01842L92.7619 3.68424C92.9584 3.62526 93.1414 3.52814 93.3005 3.39843C93.4595 3.26872 93.5914 3.10895 93.6887 2.92825C93.7859 2.74755 93.8466 2.54946 93.8673 2.3453C93.8881 2.14113 93.8683 1.93488 93.8093 1.73834ZM45.4376 13.1098V23.9079L45.0376 25.9079L41.716 16.2501L42.1476 15.3866C42.2394 15.203 42.2941 15.0032 42.3086 14.7985C42.3232 14.5938 42.2973 14.3883 42.2324 14.1936L41.8294 12.9842C43.0314 13.048 44.2341 13.0899 45.4376 13.1098ZM22.4035 48.8186C24.1475 48.4194 25.743 47.5348 27.0054 46.2671L31.2457 42.0268L35.5314 47.384L28.2501 54.6653L22.4035 48.8186ZM18.1582 42.0172C18.8422 40.9897 19.7087 40.096 20.7146 39.3805C20.7421 39.362 20.769 39.3425 20.7953 39.3219C21.4301 38.88 22.1133 38.512 22.8316 38.2251L26.3113 36.8331L29.1654 39.6876L24.7957 44.0573C24.2009 44.6553 23.4935 45.1294 22.7143 45.4521C21.9351 45.7749 21.0996 45.9399 20.2562 45.9376C19.7998 45.9376 19.3519 45.8138 18.9603 45.5792C18.5688 45.3447 18.2482 45.0083 18.0329 44.6059C17.8175 44.2034 17.7154 43.7501 17.7375 43.2942C17.7596 42.8383 17.9049 42.397 18.1582 42.0172ZM33.3339 39.6344L40.4591 29.6583C40.6484 29.3932 40.7502 29.0757 40.7501 28.7501V23.0499L43.5152 31.0895L41.6138 32.0401C41.3543 32.1699 41.136 32.3693 40.9835 32.6162C40.831 32.863 40.7502 33.1474 40.7501 33.4376V36.0143L35.5939 42.4596L33.3339 39.6344ZM34.238 26.492C34.4091 26.2353 34.5003 25.9336 34.5001 25.6251V16.2501C34.5002 16.0075 34.4437 15.7682 34.3351 15.5512L33.122 13.1251L33.9033 11.5626H38.0615L38.1285 11.7633C38.1304 11.7696 38.1324 11.7756 38.1345 11.7817L39.0632 14.5676L37.7902 17.1137C37.6816 17.3307 37.6251 17.57 37.6251 17.8126V28.2495L31.1757 37.2784L28.6982 34.8008L34.238 26.492ZM15.7501 25.6251C15.7501 24.3819 16.244 23.1896 17.1231 22.3105C18.0022 21.4314 19.1944 20.9376 20.4376 20.9376C21.6808 20.9376 22.8731 21.4314 23.7522 22.3105C24.6313 23.1896 25.1251 24.3819 25.1251 25.6251V27.1876H15.7501V25.6251ZM23.5626 30.3126V33.4376C23.5626 33.8606 23.4767 34.2792 23.3101 34.668L21.671 35.3235C20.9207 35.6237 20.1992 35.9916 19.5156 36.4225C18.8781 36.2248 18.3205 35.8286 17.9242 35.2916C17.5279 34.7546 17.3136 34.105 17.3126 33.4376V30.3126H23.5626ZM50.6587 49.4491L40.3677 58.453C39.2286 59.4502 37.7662 60 36.2523 60.0001H36.1742C35.3531 60.0023 34.5397 59.8417 33.7811 59.5274C33.0225 59.2132 32.3338 58.7516 31.7548 58.1694L30.4599 56.8751L38.6798 48.6546L45.8283 42.6987C46.9517 41.7636 48.367 41.2511 49.8287 41.2501H50.0142C50.8353 41.2478 51.6487 41.4084 52.4073 41.7227C53.1658 42.0369 53.8546 42.4985 54.4335 43.0807L66.6654 55.3126L62.6251 59.3528L52.7925 49.5202C52.5122 49.2399 52.1359 49.0766 51.7397 49.0634C51.3435 49.0502 50.9571 49.188 50.6587 49.4491ZM68.8751 65.603L64.8349 61.5626L69.7193 56.6782L73.1406 55.5378L76.0406 58.4376L68.8751 65.603ZM74.8166 46.2762L76.4624 47.9221L74.8322 52.8106L74.6667 52.6452C74.4616 52.44 74.2033 52.296 73.9209 52.2293C73.6384 52.1626 73.343 52.1759 73.0677 52.2676L70.4376 53.1446V48.4657L74.8166 46.2762ZM67.3126 51.5403L62.1339 46.3616L67.3126 48.5381V51.5403ZM48.5626 38.2122C46.8199 38.4504 45.1791 39.1732 43.8269 40.2981L37.8503 45.2786L37.5964 44.9604L43.5339 37.5385C43.7551 37.2614 43.8755 36.9172 43.8751 36.5626V34.4032L45.5576 33.5622L48.5626 34.5637V38.2122Z" fill="#084D2B"/>
</svg>
