<svg width="100" height="74" viewBox="0 0 100 74" fill="none" xmlns="http://www.w3.org/2000/svg">
<path d="M61.3535 37.9221H89.2969L80.115 17.7422H64.2832C62.6652 17.7422 61.3535 19.054 61.3535 20.6719V37.9221Z" stroke="#084D2B" stroke-width="2.93255" stroke-miterlimit="10" stroke-linecap="round" stroke-linejoin="round"/>
<path d="M90.625 63.5574H95.4102C97.1359 63.5574 98.5352 62.1582 98.5352 60.4324V54.8205" stroke="#084D2B" stroke-width="2.93255" stroke-miterlimit="10" stroke-linecap="round" stroke-linejoin="round"/>
<path d="M27.8907 63.5574H67.5874" stroke="#084D2B" stroke-width="2.93255" stroke-miterlimit="10" stroke-linecap="round" stroke-linejoin="round"/>
<path d="M1.46484 54.8202V60.4321C1.46484 62.1581 2.86406 63.5571 4.58984 63.5571H10.1018" stroke="#084D2B" stroke-width="2.93255" stroke-miterlimit="10" stroke-linecap="round" stroke-linejoin="round"/>
<path d="M61.3535 37.9222V63.5574" stroke="#084D2B" stroke-width="2.93255" stroke-miterlimit="10" stroke-linecap="round" stroke-linejoin="round"/>
<path d="M98.5351 43.7656H93.0234C91.9447 43.7656 91.0703 44.6402 91.0703 45.7187V47.5312C91.0703 48.61 91.9447 49.4844 93.0234 49.4844H98.5351" stroke="#084D2B" stroke-width="2.93255" stroke-miterlimit="10" stroke-linecap="round" stroke-linejoin="round"/>
<path d="M1.46484 49.4844H6.97656C8.05527 49.4844 8.92969 48.61 8.92969 47.5312V45.7187C8.92969 44.64 8.05527 43.7656 6.97656 43.7656H1.46484" stroke="#084D2B" stroke-width="2.93255" stroke-miterlimit="10" stroke-linecap="round" stroke-linejoin="round"/>
<path d="M76.3248 72.2942C71.4994 72.2942 67.5879 68.3827 67.5879 63.5573C67.5879 58.7321 71.4994 54.8204 76.3248 54.8204C81.1502 54.8204 85.0617 58.7321 85.0617 63.5573C85.0617 68.3827 81.1502 72.2942 76.3248 72.2942Z" stroke="#084D2B" stroke-width="2.93255" stroke-miterlimit="10" stroke-linecap="round" stroke-linejoin="round"/>
<path d="M76.3236 60.4389C74.6014 60.4389 73.2051 61.835 73.2051 63.5575C73.2051 65.2797 74.6014 66.676 76.3236 66.676C78.0459 66.676 79.4422 65.2797 79.4422 63.5575C79.4422 61.835 78.0459 60.4389 76.3236 60.4389Z" stroke="#084D2B" stroke-width="2.93255" stroke-miterlimit="10" stroke-linecap="round" stroke-linejoin="round"/>
<path d="M18.9732 72.2942C14.1479 72.2942 10.2363 68.3827 10.2363 63.5573C10.2363 58.7321 14.1479 54.8204 18.9732 54.8204C23.7986 54.8204 27.7102 58.7321 27.7102 63.5573C27.7102 68.3827 23.7986 72.2942 18.9732 72.2942Z" stroke="#084D2B" stroke-width="2.93255" stroke-miterlimit="10" stroke-linecap="round" stroke-linejoin="round"/>
<path d="M18.9721 60.4389C17.2498 60.4389 15.8535 61.835 15.8535 63.5575C15.8535 65.2797 17.2498 66.676 18.9721 66.676C20.6943 66.676 22.0906 65.2797 22.0906 63.5575C22.0906 61.835 20.6943 60.4389 18.9721 60.4389Z" stroke="#084D2B" stroke-width="2.93255" stroke-miterlimit="10" stroke-linecap="round" stroke-linejoin="round"/>
<path d="M37.6796 37.9221H51.09C52.7079 37.9221 54.0197 36.6106 54.0197 34.9924V20.6719C54.0197 19.054 52.7079 17.7422 51.09 17.7422H37.6796C36.0617 17.7422 34.7499 19.054 34.7499 20.6719V34.9924C34.7499 36.6106 36.0617 37.9221 37.6796 37.9221Z" stroke="#084D2B" stroke-width="2.93255" stroke-miterlimit="10" stroke-linecap="round" stroke-linejoin="round"/>
<path d="M12.2675 37.9221H25.6779C27.2958 37.9221 28.6075 36.6106 28.6075 34.9924V20.6719C28.6075 19.054 27.2958 17.7422 25.6779 17.7422H12.2675C10.6495 17.7422 9.33781 19.054 9.33781 20.6719V34.9924C9.33781 36.6106 10.6495 37.9221 12.2675 37.9221Z" stroke="#084D2B" stroke-width="2.93255" stroke-miterlimit="10" stroke-linecap="round" stroke-linejoin="round"/>
<path d="M47.5703 54.8206H98.5351V41.1299C98.5351 39.3584 97.099 37.9223 95.3277 37.9223H61.3543V20.6721C61.3543 19.0542 62.666 17.7424 64.284 17.7424H93.4744C95.8271 17.7424 97.3791 15.2936 96.3748 13.1659L92.8203 5.63521C91.6879 3.23638 89.2732 1.70591 86.6205 1.70591H9.93691C5.25781 1.70591 1.46484 5.49907 1.46484 10.178V24.2008" stroke="#084D2B" stroke-width="2.93255" stroke-miterlimit="10" stroke-linecap="round" stroke-linejoin="round"/>
<path d="M1.46484 30.8568V54.8203H41.6875" stroke="#084D2B" stroke-width="2.93255" stroke-miterlimit="10" stroke-linecap="round" stroke-linejoin="round"/>
<path d="M68.291 43.7656H69.7414" stroke="#084D2B" stroke-width="2.93255" stroke-miterlimit="10" stroke-linecap="round" stroke-linejoin="round"/>
<path d="M39.2265 43.7656H40.6768" stroke="#084D2B" stroke-width="2.93255" stroke-miterlimit="10" stroke-linecap="round" stroke-linejoin="round"/>
<path d="M9.33781 10.1379H20.4728" stroke="#084D2B" stroke-width="2.93255" stroke-miterlimit="10" stroke-linecap="round" stroke-linejoin="round"/>
<path d="M25.867 10.1379H28.5274" stroke="#084D2B" stroke-width="2.93255" stroke-miterlimit="10" stroke-linecap="round" stroke-linejoin="round"/>
</svg>
