<svg width="100" height="100" viewBox="0 0 100 100" fill="none" xmlns="http://www.w3.org/2000/svg">
<g clip-path="url(#clip0_343_2425)">
<path d="M13.5938 82.1875C14.5312 82.1875 15.1562 81.5625 15.1562 80.625V77.6562L18.4375 80.9375C19.0625 81.5625 20 81.5625 20.625 80.9375C21.25 80.3125 21.25 79.375 20.625 78.75L15.1562 73.2813V70L17.0312 72.5C17.5 73.125 18.5938 73.2812 19.2188 72.8125C19.8438 72.3437 20 71.25 19.5313 70.625L15.1562 65.1562V59.6875C15.1562 58.75 14.5312 58.125 13.5938 58.125C12.6563 58.125 12.0312 58.75 12.0312 59.6875V65.1562L7.65625 70.625C7.1875 71.25 7.1875 72.3437 7.96875 72.8125C8.59375 73.2812 9.6875 73.2813 10.1562 72.5L12.0312 70V73.2813L6.5625 78.75C5.9375 79.375 5.9375 80.3125 6.5625 80.9375C7.1875 81.5625 8.125 81.5625 8.75 80.9375L12.0312 77.6562V80.625C12.0312 81.5625 12.6563 82.1875 13.5938 82.1875Z" fill="#084D2B"/>
<path d="M3.28036 59.8438L31.7179 18.9063L59.5304 59.8438C59.9991 60.625 60.9366 60.7812 61.7179 60.3125C62.4991 59.8438 62.6554 58.9063 62.1866 58.125L49.6866 39.6875L59.9991 30.1562L78.7491 54.6875C79.2179 55.3125 80.3116 55.4688 80.9366 55C81.5616 54.5313 81.7179 53.4375 81.2491 52.8125L74.3741 43.75L83.2804 35.9375L96.7179 56.25C97.1866 57.0313 98.1241 57.1875 98.9054 56.7188C99.6866 56.25 99.8429 55.3125 99.3741 54.5313L84.8429 32.8125C84.3741 32.0312 83.2804 31.875 82.4991 32.5L72.3429 41.25L61.2491 26.875C60.7804 26.25 59.6866 26.0938 58.9054 26.7188L47.6554 37.0313L33.1241 15.3125C32.4991 14.375 31.0929 14.375 30.6241 15.3125L0.780365 58.125C0.311615 58.9063 0.467865 59.8438 1.09286 60.3125C1.87411 60.7812 2.81161 60.625 3.28036 59.8438Z" fill="#084D2B"/>
<path d="M22.9679 44.6875L31.7179 32.1875L32.8116 33.75C33.2804 34.5313 34.2179 34.6875 34.9991 34.2188C35.7804 33.75 35.9366 32.8125 35.4679 32.0313L33.1241 28.5938C32.4991 27.6562 31.2491 27.6562 30.6241 28.5938L20.6241 42.9688C20.1554 43.75 20.3116 44.6875 20.9366 45.1562C21.5616 45.625 22.4991 45.4688 22.9679 44.6875Z" fill="#084D2B"/>
<path d="M99.5308 82.5C98.9058 81.875 97.9683 81.875 97.3433 82.5C97.0308 82.8125 90.312 90 78.2808 92.8125V82.0313L82.9683 86.7188C83.5933 87.3438 84.5308 87.3438 85.1558 86.7188C85.7808 86.0938 85.7808 85.1562 85.1558 84.5312L78.1245 77.5V72.1875L81.2495 76.0938C81.7183 76.7188 82.812 76.875 83.437 76.4063C84.062 75.9375 84.2183 74.8438 83.7495 74.2188L77.812 66.7188C77.4995 66.4063 77.0308 66.0938 76.562 66.0938C76.0933 66.0938 75.6245 66.4063 75.312 66.7188L69.3745 74.2188C68.9058 74.8438 68.9058 75.9375 69.687 76.4063C70.312 76.875 71.4058 76.875 71.8745 76.0938L74.9995 72.1875V77.5L68.2808 84.375C67.6558 85 67.6558 85.9375 68.2808 86.5625C68.9058 87.1875 69.8433 87.1875 70.4683 86.5625L75.1558 81.875V93.2813C66.562 94.5313 57.6558 93.125 49.687 88.75C45.312 86.4063 40.7808 84.8438 36.0933 84.0625V76.25L39.3745 79.5313C39.9995 80.1563 40.937 80.1563 41.562 79.5313C42.187 78.9063 42.187 77.9688 41.562 77.3438L36.0933 71.875V67.0313L37.9683 69.5313C38.437 70.1563 39.5308 70.3125 40.1558 69.8438C40.7808 69.375 40.937 68.2813 40.4683 67.6563L35.7808 61.7188C35.4683 61.4063 34.9995 61.0938 34.5308 61.0938C34.062 61.0938 33.5933 61.4063 33.2808 61.7188L28.5933 67.6563C28.1245 68.2813 28.1245 69.375 28.9058 69.8438C29.5308 70.3125 30.6245 70.3125 31.0933 69.5313L32.9683 67.0313V71.875L27.4995 77.3438C26.8745 77.9688 26.8745 78.9063 27.4995 79.5313C28.1245 80.1563 29.062 80.1563 29.687 79.5313L32.9683 76.25V83.75C15.312 82.0312 4.84329 91.25 0.780787 92.9688C-0.00046251 93.4375 -0.312963 94.375 0.155787 95.1563C0.624538 95.9375 1.56204 96.25 2.34329 95.7812C4.99954 95 24.5308 78.75 48.2808 91.875C54.8433 95.4688 62.0308 97.1875 69.2183 97.1875C87.4995 97.1875 99.3745 85 99.5308 85C100.156 84.0625 100.156 83.125 99.5308 82.5Z" fill="#084D2B"/>
<path d="M39.9987 94.2188C32.8112 92.6562 25.4675 92.6562 18.28 94.2188C17.4987 94.375 16.8737 95.1563 17.03 96.0938C17.1862 96.875 18.1237 97.5 18.905 97.3438C25.6237 95.9375 32.4987 95.9375 39.2175 97.3438C39.9987 97.5 40.9362 97.0313 41.0925 96.0938C41.405 95.3125 40.9362 94.375 39.9987 94.2188Z" fill="#084D2B"/>
<path d="M44.3751 50.1564L40.4689 47.6564L39.0626 42.3439C38.9064 41.5627 37.9689 40.9376 37.1876 41.2501C36.4064 41.4064 35.7814 42.3439 36.0939 43.1252L37.6564 49.0627C37.8127 49.3751 37.9689 49.8439 38.2814 50.0002L42.1876 52.5001L43.2814 55.9376C43.5939 56.7189 44.3751 57.1877 45.3126 57.0314C46.0939 56.7189 46.5627 55.9377 46.4064 55.0002L45.1564 51.0939C44.8439 50.6252 44.6876 50.3126 44.3751 50.1564Z" fill="#084D2B"/>
<path d="M76.875 22.3438C82.3437 22.3438 86.7187 17.9688 86.7187 12.5C86.7187 7.03125 82.3437 2.65625 76.875 2.65625C71.4062 2.65625 67.0312 7.03125 67.0312 12.5C67.0312 17.9688 71.4062 22.3438 76.875 22.3438ZM76.875 5.78125C80.625 5.78125 83.5937 8.75 83.5937 12.5C83.5937 16.25 80.625 19.2188 76.875 19.2188C73.125 19.2188 70.1562 16.25 70.1562 12.5C70.1562 8.75 73.125 5.78125 76.875 5.78125Z" fill="#084D2B"/>
</g>
<defs>
<clipPath id="clip0_343_2425">
<rect width="100" height="100" fill="white"/>
</clipPath>
</defs>
</svg>
