<svg width="94" height="72" viewBox="0 0 94 72" fill="none" xmlns="http://www.w3.org/2000/svg">
<path d="M69.3238 0.380349C66.0287 0.178381 62.9041 2.31794 62.0088 5.62012C60.9855 9.3941 63.2428 13.3281 67.0167 14.3513C70.7907 15.3746 74.7245 13.1172 75.7478 9.34333C76.771 5.56935 74.5138 1.63861 70.7399 0.615359C70.2681 0.487209 69.7946 0.409286 69.3238 0.380349ZM31.8208 0.383413C28.5256 0.181445 25.4041 2.32112 24.5088 5.62337C23.4855 9.39728 25.7427 13.3189 29.5167 14.3421C33.2907 15.3654 37.2215 13.1205 38.2447 9.34657C39.268 5.57259 37.0138 1.63861 33.2399 0.615359C32.7681 0.487209 32.2915 0.41235 31.8208 0.383413ZM69.1194 3.49621C69.3851 3.51392 69.654 3.55765 69.922 3.63029C72.0659 4.21139 73.3109 6.38136 72.7296 8.5253C72.1483 10.6692 69.9785 11.9143 67.8346 11.333C65.6906 10.7519 64.4457 8.58191 65.027 6.43797C65.5356 4.56202 67.2596 3.37438 69.1194 3.49621ZM31.6194 3.49945C31.8851 3.51717 32.154 3.56072 32.422 3.63336C34.5659 4.21446 35.8109 6.38443 35.2296 8.52836C34.6483 10.6723 32.4755 11.9174 30.3315 11.336C28.1876 10.7549 26.9426 8.58497 27.5239 6.44103C28.0326 4.56509 29.7596 3.37762 31.6194 3.49945ZM26.6481 16.8539C26.0547 16.8716 25.5226 17.2241 25.2748 17.7633L16.3209 37.1633H12.6222C9.18671 37.1633 6.3844 39.981 6.3844 43.4164C6.3844 46.8519 9.18671 49.6664 12.6222 49.6664H28.4425L26.6359 52.6999C24.6142 52.2451 22.4429 53.164 21.4448 55.0802L16.3942 64.7787C15.2071 67.0579 16.0985 69.918 18.3778 71.105C20.6571 72.2921 23.5231 71.3914 24.7102 69.1121L29.7608 59.4137C30.6296 57.7457 30.3674 55.7746 29.2757 54.3691L32.0772 49.6664H68.8753L67.2182 52.6907C65.2093 52.2596 63.0606 53.1779 62.0698 55.0802L57.0192 64.7787C55.8321 67.0579 56.7267 69.918 59.0059 71.105C61.2851 72.2921 64.1481 71.3914 65.3352 69.1121L70.3859 59.4137C71.2618 57.7318 70.991 55.7399 69.8762 54.3325L72.4336 49.6664H87.6313C91.0668 49.6664 93.8813 46.8519 93.8813 43.4164C93.8813 39.981 91.0668 37.1633 87.6313 37.1633H79.2878L83.3162 29.8117C85.1045 29.5731 86.374 29.3202 86.374 29.3202C88.6107 29.0503 87.9281 25.651 85.7606 26.2654C85.7606 26.2654 85.3474 26.3333 85.2052 26.3599L87.433 22.298C88.0721 21.1867 87.1747 19.821 85.901 19.9665C85.3887 20.0279 84.9399 20.3386 84.7017 20.7966L81.363 26.8879C81.0721 26.9175 80.8069 26.9541 80.5024 26.9795C77.6185 27.2198 74.1909 27.0947 72.6686 26.3813C71.4269 25.7996 69.4338 23.6045 67.9994 21.5595C66.565 19.5145 65.5641 17.6716 65.5641 17.6716C65.2853 17.1572 64.7424 16.8414 64.1572 16.8537C63.5606 16.8655 63.0241 17.221 62.7748 17.7631L53.8179 37.1631H39.5204L43.7593 30.0434C46.602 29.7753 48.874 29.3202 48.874 29.3202C51.0902 29.0285 50.405 25.6664 48.2515 26.2654C48.2515 26.2654 47.2268 26.4591 45.7734 26.6623L48.343 22.344C49.0133 21.2557 48.1646 19.8669 46.8904 19.9667C46.3773 20.008 45.9163 20.2944 45.6575 20.7388L41.9099 27.0316C39.2926 27.1615 36.4967 27.0078 35.1594 26.3813C33.9177 25.7996 31.9246 23.6047 30.4902 21.5597C29.0558 19.5147 28.0671 17.6717 28.0671 17.6717C27.7863 17.1532 27.2375 16.8369 26.6481 16.8539ZM26.9014 21.697C27.3277 22.3917 27.3258 22.483 27.9389 23.3572C29.4898 25.5683 31.4051 28.0636 33.8472 29.2074C35.6495 30.0516 37.8369 30.2524 40.0056 30.2357L35.8827 37.1633H19.7633L26.9014 21.697ZM64.4014 21.697C64.828 22.3922 64.825 22.4819 65.4389 23.3572C66.9899 25.5683 68.902 28.0636 71.3441 29.2074C73.7277 30.3238 76.77 30.3487 79.5655 30.1687L75.7295 37.1633H57.2633L64.4014 21.697ZM12.6222 40.2914C19.7571 40.2961 26.8766 40.2914 34.0211 40.2914L30.301 46.5413H12.6222C10.8639 46.5413 9.50939 45.1747 9.50939 43.4164C9.50939 41.6581 10.8639 40.2914 12.6222 40.2914ZM37.6588 40.2914C49.7905 40.2961 61.8856 40.2914 74.0144 40.2914L70.5903 46.5413H33.9357L37.6588 40.2914ZM77.5727 40.2914H87.6313C89.3896 40.2914 90.7563 41.6581 90.7563 43.4164C90.7563 45.1747 89.3896 46.5413 87.6313 46.5413H74.1456L77.5727 40.2914ZM43.2801 52.7577C41.6517 52.8286 39.7077 53.3454 37.0179 54.479C34.9965 55.253 36.2812 58.2773 38.2417 57.3599C40.7408 56.3067 42.367 55.9318 43.4205 55.8858C44.474 55.8386 44.9567 56.0359 45.6208 56.4168C46.9491 57.1794 48.9574 59.0444 53.2594 59.0444C55.3895 59.0916 55.3895 55.8721 53.2594 55.9193C49.7489 55.9193 49.1169 54.8156 47.1803 53.7037C46.212 53.148 44.9085 52.6867 43.2801 52.7577ZM82.3457 52.7577C80.7173 52.8286 78.7733 53.3454 76.0835 54.479C74.2649 55.3272 75.4168 58.0664 77.295 57.3599C79.7942 56.3067 81.4326 55.9318 82.4861 55.8858C83.5396 55.8386 84.0253 56.0359 84.6894 56.4168C86.0177 57.1794 88.0108 59.0444 92.3127 59.0444C94.4428 59.0916 94.4428 55.8721 92.3127 55.9193C88.8022 55.9193 88.1824 54.8156 86.2458 53.7037C85.2775 53.148 83.9741 52.6867 82.3457 52.7577ZM6.08227 53.2769C4.72395 53.2769 3.17246 53.6425 1.11095 54.4671C-0.760394 55.2718 0.368186 58.0843 2.27672 57.3723C4.12146 56.6344 5.29214 56.405 6.08227 56.405C6.87237 56.405 7.33205 56.5798 8.02013 56.9241C9.39628 57.6121 11.5284 59.0451 15.7472 59.0451C17.8773 59.0924 17.8773 55.8728 15.7472 55.9201C12.1534 55.9201 11.1667 55.0061 9.41783 54.1317C8.54342 53.6947 7.44056 53.2769 6.08227 53.2769ZM25.7112 55.6816C25.913 55.6993 26.1175 55.762 26.3154 55.8647C27.1071 56.2769 27.3991 57.1788 26.9868 57.9704L21.9361 67.6658C21.5238 68.4575 20.613 68.7467 19.8213 68.3343C19.0296 67.9221 18.7528 67.0142 19.1651 66.2225L24.2158 56.5236C24.525 55.9298 25.1058 55.6242 25.7112 55.6816ZM66.3392 55.6816C66.541 55.6993 66.7455 55.762 66.9435 55.8647C67.7352 56.2769 68.0272 57.1788 67.6149 57.9704L62.5642 67.6689C62.1519 68.4606 61.241 68.7467 60.4493 68.3343C59.6576 67.9221 59.3809 67.0141 59.7932 66.2225L64.8439 56.5271C65.1531 55.9333 65.7338 55.6242 66.3392 55.6816ZM40.1551 60.5674C38.5267 60.6383 36.5827 61.1522 33.8929 62.2857C31.9245 63.0807 33.1726 66.0293 35.1136 65.1696C37.6128 64.1165 39.239 63.7384 40.2925 63.6925C41.346 63.6453 41.8317 63.8425 42.4958 64.2234C43.8241 64.9861 45.8294 66.8541 50.1313 66.8541C52.1691 66.8069 52.1691 63.7741 50.1313 63.7291C46.6208 63.7291 45.9888 62.6254 44.0522 61.5134C43.0839 60.9577 41.7835 60.4963 40.1551 60.5674ZM79.2207 60.5674C77.5923 60.6383 75.6483 61.1522 72.9585 62.2857C71.0359 63.0934 72.2474 65.9773 74.17 65.1696C76.6692 64.1165 78.3076 63.7384 79.3611 63.6925C80.4146 63.6453 80.8972 63.8425 81.5614 64.2234C82.8897 64.9861 84.8858 66.8541 89.1877 66.8541C91.2255 66.8069 91.2255 63.7741 89.1877 63.7291C85.6772 63.7291 85.0574 62.6254 83.1208 61.5134C82.1525 60.9577 80.8491 60.4963 79.2207 60.5674ZM5.38036 61.0984C4.10769 61.0984 2.69724 61.48 0.994984 62.3315C-0.985836 63.2222 0.492544 66.1756 2.39269 65.1236C3.81542 64.4123 4.74872 64.2234 5.38036 64.2234C6.012 64.2234 6.41196 64.3776 6.97033 64.6965C8.08705 65.3347 9.75761 66.8541 12.6222 66.8541C14.66 66.8069 14.66 63.7741 12.6222 63.7291C10.7993 63.7291 10.1352 62.9109 8.51756 61.9865C7.70875 61.5241 6.65302 61.0984 5.38036 61.0984Z" fill="#084D2B"/>
</svg>
