<svg width="100" height="38" viewBox="0 0 100 38" fill="none" xmlns="http://www.w3.org/2000/svg">
<path d="M28.0803 28.3941C28.0803 32.7175 24.5756 36.2224 20.252 36.2224C15.9287 36.2224 12.4238 32.7175 12.4238 28.3941C12.4238 24.0707 15.9287 20.5658 20.252 20.5658C24.5756 20.5658 28.0803 24.0707 28.0803 28.3941Z" stroke="#084D2B" stroke-width="2.91992" stroke-miterlimit="10" stroke-linecap="round" stroke-linejoin="round"/>
<path d="M28.0801 31.5254H73.484" stroke="#084D2B" stroke-width="2.91992" stroke-miterlimit="10" stroke-linecap="round" stroke-linejoin="round"/>
<path d="M21.3605 27.2869L19.1465 29.501" stroke="#084D2B" stroke-width="2.91992" stroke-miterlimit="10" stroke-linecap="round" stroke-linejoin="round"/>
<path d="M89.1408 28.3941C89.1408 32.7175 85.6361 36.2224 81.3125 36.2224C76.9893 36.2224 73.4844 32.7175 73.4844 28.3941C73.4844 24.0707 76.9893 20.5658 81.3125 20.5658C85.6361 20.5658 89.1408 24.0707 89.1408 28.3941Z" stroke="#084D2B" stroke-width="2.91992" stroke-miterlimit="10" stroke-linecap="round" stroke-linejoin="round"/>
<path d="M80.2051 27.2869L82.4191 29.501" stroke="#084D2B" stroke-width="2.91992" stroke-miterlimit="10" stroke-linecap="round" stroke-linejoin="round"/>
<path d="M12.4244 29.9598L4.87148 27.8018C2.85508 27.2256 1.46484 25.3826 1.46484 23.2855V13.9361C1.46484 12.357 2.64082 11.025 4.20781 10.8291L9.99844 10.1053C12.6402 9.775 15.2068 8.99805 17.5881 7.80723L25.0184 4.09219C28.0619 2.57031 31.4182 1.77813 34.8209 1.77813H48.7699C52.641 1.77813 56.4314 2.88203 59.6973 4.96015L71.9191 12.7377C71.9191 12.7377 86.1115 12.7377 94.9656 16.8494C97.1582 17.8678 98.5351 20.0926 98.5351 22.5104V27.708C98.5351 30.1316 97.1332 31.5254 95.4039 31.5254" stroke="#084D2B" stroke-width="2.91992" stroke-miterlimit="10" stroke-linecap="round" stroke-linejoin="round"/>
<path d="M31.2115 12.7375H28.1916C26.1154 12.7375 24.1242 11.9127 22.6561 10.4446L20.252 8.04067" stroke="#084D2B" stroke-width="2.91992" stroke-miterlimit="10" stroke-linecap="round" stroke-linejoin="round"/>
<path d="M71.9188 12.7375H37.4746" stroke="#084D2B" stroke-width="2.91992" stroke-miterlimit="10" stroke-linecap="round" stroke-linejoin="round"/>
<path d="M34.3438 25.2629H67.2223" stroke="#084D2B" stroke-width="2.91992" stroke-miterlimit="10" stroke-linecap="round" stroke-linejoin="round"/>
<path d="M1.46484 17.4346H4.59609" stroke="#084D2B" stroke-width="2.91992" stroke-miterlimit="10" stroke-linecap="round" stroke-linejoin="round"/>
<path d="M93.8379 20.5659H97.6215" stroke="#084D2B" stroke-width="2.91992" stroke-miterlimit="10" stroke-linecap="round" stroke-linejoin="round"/>
<path d="M43.7383 12.7375V1.77798" stroke="#084D2B" stroke-width="2.91992" stroke-miterlimit="10" stroke-linecap="round" stroke-linejoin="round"/>
<path d="M25.7324 12.1016L27.7707 3.09805" stroke="#084D2B" stroke-width="2.91992" stroke-miterlimit="10" stroke-linecap="round" stroke-linejoin="round"/>
</svg>
