<svg width="100" height="100" viewBox="0 0 100 100" fill="none" xmlns="http://www.w3.org/2000/svg">
<g clip-path="url(#clip0_343_2559)">
<path d="M84.5491 6.82686e-05C80.9831 -0.0121361 77.6078 1.61257 75.3943 4.4089C73.1807 7.20447 72.3729 10.862 73.2028 14.3303C68.3882 11.3631 62.2219 11.7697 57.8383 15.3433L46.3776 24.6544L27.7148 15.7651L28.5615 14.0755C28.9726 13.2517 28.6385 12.251 27.8147 11.8391C26.9909 11.4279 25.9902 11.762 25.5783 12.5858L24.7003 14.3303L19.4463 11.8307C18.904 11.5225 18.2351 11.5424 17.7126 11.8833C17.1901 12.2243 16.9017 12.8276 16.965 13.4485C17.0283 14.0687 17.4326 14.6018 18.0138 14.8299L23.2091 17.3044L22.2373 19.2456C21.8262 20.0694 22.1603 21.0709 22.9841 21.4821C23.8079 21.8932 24.8086 21.5591 25.2205 20.7353L26.2198 18.7361L43.5111 26.9779L40.6003 29.3424C39.5851 30.1716 38.7262 31.1762 38.0656 32.3081C35.7354 37.2181 37.354 43.0945 41.8696 46.1181L57.7002 56.2562L41.2754 63.5597C38.5416 64.7367 36.8727 67.5338 37.1343 70.4979L16.2656 57.7725C15.7568 57.4552 15.1176 57.4354 14.5905 57.7207C14.0634 58.006 13.7301 58.5521 13.7171 59.1509C13.7049 59.7504 14.0146 60.3095 14.5295 60.6169L75.736 97.9425C80.6078 100.939 86.8183 100.641 91.3812 97.1927C92.1173 96.6404 92.2661 95.5954 91.7138 94.8594C91.1623 94.1233 90.1173 93.9738 89.3813 94.526C85.9061 97.1485 81.1799 97.3742 77.4705 95.0958L46.1007 75.9639C46.209 75.922 46.3257 75.9037 46.434 75.8556L69.8725 65.4323C74.5018 63.3461 76.633 57.9571 74.6841 53.2684C73.961 51.5315 72.7215 50.0579 71.1334 49.0479L58.6163 40.2166L62.9489 38.0503L68.8092 42.1258L73.9747 45.7238C76.5018 47.5369 79.9297 47.4332 82.3431 45.4705L88.0083 48.1647C88.546 48.4209 89.1791 48.3706 89.6696 48.0327C90.16 47.6955 90.4331 47.1219 90.3858 46.5285C90.3393 45.9343 89.9785 45.411 89.4415 45.1555L84.2539 42.6856C84.6498 41.6399 84.7718 40.511 84.6093 39.405C84.3302 37.5987 83.3248 35.9854 81.826 34.9389L77.3836 31.855L77.884 31.7498C79.6826 31.3607 80.8252 29.5881 80.4362 27.7894L79.437 23.1815C79.347 22.7651 79.2066 22.3669 79.08 21.9634C83.3668 24.2425 88.6162 23.6277 92.2607 20.421C95.9053 17.2136 97.1821 12.0847 95.4667 7.54314C93.7519 3.00235 89.4034 -0.00222006 84.5491 6.82686e-05ZM79.9137 37.6719C80.665 38.1944 81.1685 39.0037 81.3058 39.9092C81.4423 40.8138 81.2013 41.736 80.6383 42.4576C79.4347 43.8466 77.366 44.0785 75.884 42.9908L71.8382 40.1746L69.3958 38.4751L64.0335 34.7459H64.0251L62.4973 33.6826C61.8039 33.2013 61.3188 32.4736 61.1411 31.6483L60.5026 28.6872C60.3142 27.823 60.4775 26.9191 60.9565 26.1754C61.4347 25.4317 62.1891 24.9084 63.0534 24.7216L66.4347 23.9901C67.334 23.7956 67.9061 22.9092 67.7116 22.0099C67.5179 21.1098 66.6308 20.5378 65.7315 20.7323L62.3508 21.4638C58.7551 22.2448 56.4699 25.7879 57.2418 29.3852L57.8795 32.3478C58.1777 33.6933 58.8863 34.9122 59.9077 35.8375L56.4904 37.5484C56.2944 37.6468 56.1197 37.7818 55.9756 37.9465C55.3387 38.6826 55.0549 39.659 55.1991 40.6216C55.331 41.5537 55.8581 42.3844 56.6453 42.9008L69.286 51.8222C70.3272 52.4736 71.1418 53.4308 71.6185 54.5636C72.8695 57.5773 71.4995 61.0403 68.524 62.3812L45.0794 72.8175C44.2426 73.189 43.2906 73.2004 42.4455 72.8488C41.6003 72.4971 40.9375 71.8137 40.6118 70.9579C40.0466 69.205 40.926 67.3126 42.6301 66.6139L59.0549 59.3004C60.1739 58.8023 60.929 57.7291 61.0213 56.5071C61.1136 55.2851 60.5278 54.1112 59.4958 53.4499L43.6659 43.3126C40.6202 41.2356 39.492 37.2791 40.9848 33.9076C41.4379 33.1533 42.0191 32.4836 42.7033 31.9298L59.9397 17.9329C63.9107 14.688 69.6963 14.9855 73.3134 18.6209C74.7589 20.0641 75.7558 21.8947 76.1845 23.8917L77.1837 28.4988L74.8191 28.9992C73.8451 29.2074 73.0869 29.9756 72.8916 30.9527C72.6963 31.9305 73.0998 32.9305 73.9198 33.498L79.9137 37.6719ZM84.5491 19.9954C79.948 19.9954 76.2173 16.2655 76.2173 11.6644C76.2173 7.06259 79.948 3.33263 84.5491 3.33263C89.1501 3.33263 92.8809 7.06259 92.8809 11.6644C92.8748 16.2632 89.1478 19.9901 84.5491 19.9954Z" fill="#084D2B"/>
<path d="M18.7309 46.6565C19.4746 46.6573 20.1283 46.1653 20.3342 45.4506C20.5394 44.7359 20.2465 43.9716 19.6157 43.5772L6.28548 35.2454C5.50287 34.758 4.47313 34.9968 3.98571 35.7786C3.49754 36.5612 3.73629 37.591 4.51889 38.0784L17.8491 46.4102C18.1146 46.5726 18.4197 46.6581 18.7309 46.6565Z" fill="#084D2B"/>
<path d="M16.1812 38.0716L29.5114 46.4033C30.2933 46.8907 31.323 46.652 31.8104 45.8702C32.2986 45.0875 32.0599 44.0586 31.2773 43.5704L17.947 35.2394C17.1652 34.7512 16.1354 34.9899 15.6473 35.7726C15.1599 36.5544 15.3986 37.5841 16.1812 38.0716Z" fill="#084D2B"/>
</g>
<defs>
<clipPath id="clip0_343_2559">
<rect width="100" height="100" fill="white"/>
</clipPath>
</defs>
</svg>
