<svg width="100" height="84" viewBox="0 0 100 84" fill="none" xmlns="http://www.w3.org/2000/svg">
<path d="M5.41468 82.0783C5.16077 82.0783 4.90687 81.9806 4.73108 81.7853L0.356085 77.4298C0.141241 77.215 0.0435846 76.922 0.0826471 76.6291C0.12171 76.3361 0.27796 76.0627 0.531866 75.9064L3.87171 73.8361C4.26233 73.6017 4.75062 73.6603 5.08265 73.9728L7.89515 76.7853C8.18812 77.0783 8.26624 77.5275 8.09046 77.8986L6.31312 81.5119C6.1764 81.7853 5.90296 82.0002 5.59046 82.0392C5.51233 82.0588 5.47327 82.0783 5.41468 82.0783ZM2.62171 76.922L5.14124 79.4416L6.00062 77.6838L4.2428 75.9259L2.62171 76.922Z" fill="#084D2B"/>
<path d="M34.0059 50.3791L32.6191 48.9924C33.6348 47.9768 34.3379 46.9807 34.9434 46.1018C35.6465 45.1057 36.252 44.2268 37.1309 43.6213C38.5371 42.6448 42.541 42.3518 44.084 42.2737L49.4941 35.3987L51.0371 36.6096L45.3535 43.8166C45.1777 44.0315 44.9043 44.1682 44.6309 44.1877C42.4824 44.2659 39.084 44.6565 38.2637 45.2229C37.6777 45.6331 37.1895 46.3167 36.5645 47.2151C35.9395 48.1135 35.1582 49.2268 34.0059 50.3791Z" fill="#084D2B"/>
<path d="M40.199 62.7032L38.5583 61.629C40.6482 58.4259 42.8748 55.047 44.9646 52.254L45.199 51.9415C48.988 46.9025 55.3162 38.4454 56.8005 34.8126C57.9919 31.9025 58.6755 21.0821 58.8708 16.5314C58.6365 16.3946 58.2459 16.3165 57.7576 16.59L53.5584 29.422L53.7537 32.7814L51.8005 32.8985L51.6052 29.3634C51.6052 29.2462 51.6052 29.129 51.6443 29.0118L55.9998 15.672C56.0584 15.4767 56.1951 15.3009 56.3709 15.1837C58.324 13.8165 60.0037 14.7931 60.6091 15.4962C60.7654 15.6915 60.863 15.9259 60.8435 16.1798C60.824 16.8048 60.2185 31.6485 58.6169 35.5939C57.0349 39.461 50.863 47.7032 46.7615 53.172L46.5271 53.4845C44.4763 56.1993 42.1716 59.6564 40.199 62.7032Z" fill="#084D2B"/>
<path d="M9.00586 83.2112C8.73242 83.2112 8.47852 83.1135 8.30273 82.9182L5.4707 79.9885L6.87695 78.6409L8.88867 80.7307L11.4668 77.0784C11.5449 76.9612 11.6621 76.8635 11.7793 76.7854L14.7285 75.0862C14.9629 74.9495 15.2559 74.9104 15.5098 75.0081C17.9707 75.8088 21.877 76.8049 22.9121 76.551C24.3574 76.1799 32.3066 70.6721 34.377 67.9182C34.7676 67.3909 35.2754 66.6487 35.9785 65.6135L37.5996 66.6877C36.8965 67.762 36.3691 68.5042 35.9395 69.0706C33.6934 72.0979 25.3926 77.9182 23.4004 78.4456C21.6426 78.8948 16.9746 77.5276 15.3145 77.0002L12.9316 78.3674L9.80664 82.8206C9.63086 83.0549 9.37695 83.2112 9.08398 83.2307C9.06445 83.2112 9.02539 83.2112 9.00586 83.2112Z" fill="#084D2B"/>
<path d="M16.1387 67.0979C14.7324 67.0979 13.3066 66.551 12.2324 65.4768C10.084 63.3284 10.084 59.8323 12.2324 57.6838L26.7441 43.1721C26.9199 42.9963 27.1738 42.8792 27.4277 42.8792C27.6816 42.8792 27.9355 42.9768 28.1113 43.1721L34.5371 49.5979C34.9277 49.9885 34.9277 50.594 34.5371 50.9846L20.0254 65.4963C18.9512 66.551 17.5449 67.0979 16.1387 67.0979ZM27.4277 45.2424L13.6191 59.051C12.2324 60.4377 12.2324 62.7034 13.6191 64.0901C14.2832 64.7542 15.1816 65.1252 16.1387 65.1252C17.0957 65.1252 17.9941 64.7542 18.6582 64.0901L32.4668 50.2815L27.4277 45.2424Z" fill="#084D2B"/>
<path d="M1.93735 76.4924C-0.0157747 74.5393 0.257663 71.6292 2.62094 69.2659C3.67563 68.2112 5.00376 67.5666 6.39048 67.469C7.79673 67.3518 9.14438 67.801 10.2967 68.7581L13.5194 67.801L15.785 65.5354L17.1717 66.9221L14.7303 69.3635C14.6131 69.4807 14.4764 69.5588 14.3202 69.6174L10.3358 70.8088C9.98423 70.9065 9.61313 70.8088 9.35923 70.5549C8.53891 69.7346 7.58188 69.344 6.56626 69.4221C5.66782 69.5002 4.73032 69.9495 4.02719 70.6526C3.42173 71.2581 1.58579 73.3674 3.3436 75.1252L1.93735 76.4924Z" fill="#084D2B"/>
<path d="M21.899 75.0079C20.1998 75.0079 18.9693 73.9923 18.1881 73.2111C17.5435 72.5665 17.2506 71.7462 17.3287 70.8478C17.6021 67.7618 22.4264 64.3243 22.9732 63.9337C23.0123 63.8946 23.0514 63.8751 23.11 63.8556L33.2467 58.9728C33.5006 58.8556 33.774 58.8361 34.0279 58.9532L48.7545 64.8322C49.0084 64.9298 49.2037 65.1251 49.3014 65.379C49.399 65.6329 49.399 65.9064 49.2818 66.1407L48.2857 68.3478C48.11 68.7579 47.6607 68.9923 47.2311 68.9142L34.2428 66.7072L27.6803 71.8243C25.6295 73.8556 23.8521 74.9103 22.231 75.0275C22.1139 75.0079 22.0162 75.0079 21.899 75.0079ZM19.5748 71.8439C20.4928 72.7618 21.235 73.1134 22.0748 73.0548C23.2076 72.9767 24.6529 72.0782 26.3326 70.379C26.3521 70.3595 26.3912 70.3204 26.4303 70.3009L33.3639 64.8907C33.5787 64.715 33.8521 64.6564 34.1256 64.6954L46.8014 66.8634L47.0748 66.2775L33.6959 60.9454L24.0279 65.5939C22.2506 66.8439 19.4185 69.4025 19.2818 71.0236C19.2428 71.3556 19.3404 71.59 19.5748 71.8439Z" fill="#084D2B"/>
<path d="M52.9536 71.2582C52.8169 71.2582 52.6997 71.2387 52.5825 71.1801L47.0356 68.8363C46.8013 68.7387 46.6059 68.5433 46.5083 68.2894C46.4106 68.0355 46.4106 67.7816 46.5278 67.5277L47.5239 65.3207C47.6216 65.1254 47.7778 64.9496 47.9731 64.8519L50.1411 63.7387C50.3755 63.6215 50.6294 63.6019 50.8833 63.6801L53.3052 64.4418L55.102 62.6449C55.3559 62.391 55.7466 62.2933 56.0981 62.4105C56.4497 62.5277 56.7036 62.8402 56.7622 63.2113L57.2505 66.8441C57.2895 67.1371 57.1919 67.4496 56.977 67.6644L53.6567 70.9847C53.4419 71.1605 53.2075 71.2582 52.9536 71.2582ZM48.6958 67.4301L52.7192 69.1293L55.2192 66.6293L55.063 65.4379L54.2427 66.2582C53.9888 66.5121 53.5981 66.6097 53.2661 66.4926L50.6489 65.6722L49.145 66.4535L48.6958 67.4301Z" fill="#084D2B"/>
<path d="M6.625 76.9026L5.23828 75.5159C8.8125 71.9417 9.04688 69.7542 9.04688 69.7151L10.0234 69.7932L11 69.8518C10.9805 70.1448 10.7266 72.801 6.625 76.9026Z" fill="#084D2B"/>
<path d="M17.3398 53.9514L23.7608 60.3724L22.38 61.7533L15.959 55.3323L17.3398 53.9514Z" fill="#084D2B"/>
<path d="M23.9238 52.8328L27.5969 56.5058L26.2161 57.8867L22.543 54.2136L23.9238 52.8328Z" fill="#084D2B"/>
<path d="M46.4316 53.5041L45.0449 52.1173C46.0801 51.0822 48.7754 49.5783 51.9199 47.8205C55.416 45.8673 59.3809 43.6408 61.041 42.0392C63.9121 39.2658 71.2168 28.6017 72.2715 27.0588C72.291 26.8048 72.2715 26.5509 72.1348 26.3947C71.959 26.1994 71.5879 26.1213 71.2949 26.1017L61.2754 36.1213L59.2832 39.5783C59.166 39.7736 58.9902 39.9298 58.7754 40.008L55.0254 41.3947L54.3418 39.5588L57.7598 38.3088L59.6348 35.047C59.6738 34.9689 59.7324 34.9103 59.791 34.8517L70.1816 24.4611C70.3379 24.3048 70.5527 24.2072 70.7871 24.1877C70.9629 24.1681 72.584 24.0509 73.5605 25.1252C73.9512 25.5548 74.3809 26.3556 74.1465 27.6447C74.127 27.7814 74.0684 27.8986 73.9902 28.0158C73.6582 28.5236 65.6113 40.3595 62.3691 43.4845C60.5332 45.2619 56.627 47.4494 52.8574 49.5588C50.123 51.0627 47.2715 52.6642 46.4316 53.5041Z" fill="#084D2B"/>
<path d="M64.7297 17.2151C61.8976 17.2151 59.964 17.0979 59.8078 17.0784L59.9445 15.1252C66.2922 15.5549 83.05 15.3596 86.7609 9.73462L80.3742 3.25024C74.3586 10.926 65.589 12.1174 60.2765 12.8401C58.3625 13.094 56.3703 13.3674 55.9015 13.8362C55.5695 14.1682 55.4914 14.344 55.4718 14.4221C55.6281 14.637 56.4289 14.9299 57.0734 15.0081L56.8195 16.9417C56.3703 16.8831 54.1242 16.5315 53.6164 15.0276C53.4211 14.4612 53.4211 13.5432 54.5148 12.4495C55.4523 11.512 57.2492 11.2776 60.0031 10.9065C65.55 10.1448 73.9289 9.01196 79.4562 1.17993C79.632 0.945556 79.8859 0.789307 80.1789 0.769775C80.4718 0.750244 80.7453 0.8479 80.9601 1.06274L88.6554 8.87525C88.9484 9.16821 89.0265 9.5979 88.8507 9.969C87.1125 13.6799 81.6242 16.0042 72.5812 16.8635C69.6906 17.137 66.9367 17.2151 64.7297 17.2151Z" fill="#084D2B"/>
<path d="M91.683 33.2307C84.9643 33.2307 77.5034 30.4377 72.8159 28.3283L73.6166 26.551C78.5776 28.7775 90.6284 33.465 97.9526 30.0861L96.0385 23.2697C87.4448 26.1018 80.3549 24.5783 75.5893 23.5627C73.1088 23.0354 70.9604 22.5666 70.3354 23.1916C70.2768 23.2502 70.2573 23.2893 70.2573 23.3088C70.2963 23.5236 70.8627 23.9924 71.351 24.2463L70.4721 25.9846C70.1596 25.8283 68.5385 24.9494 68.3237 23.6018C68.2455 23.1525 68.3041 22.469 68.9682 21.8049C70.3549 20.4182 72.7182 20.926 76.019 21.6291C80.7455 22.6447 87.8744 24.1682 96.3705 21.0627C96.6244 20.965 96.9174 20.9846 97.1518 21.1018C97.3862 21.219 97.5815 21.4533 97.6401 21.7072L100.062 30.2815C100.179 30.7111 99.9838 31.1799 99.5932 31.3947C97.269 32.7229 94.5346 33.2307 91.683 33.2307Z" fill="#084D2B"/>
<path d="M73.3829 16.5901C70.0431 16.5901 65.7071 15.9846 65.1798 13.9534C64.8673 12.7229 65.8829 11.4143 68.461 9.71509C70.0626 8.6604 71.7032 7.82056 71.7813 7.80103L72.6602 9.53931C69.9454 10.9065 67.3673 12.7424 67.0938 13.4846C67.3087 13.6995 68.2852 14.2268 70.7071 14.5198C72.6798 14.7542 74.8868 14.7346 76.1954 14.4612L76.586 16.3752C75.9024 16.4924 74.7306 16.5901 73.3829 16.5901Z" fill="#084D2B"/>
<path d="M84.8461 32.3909C84.768 32.3518 82.9907 31.6487 81.2328 30.7112C78.3032 29.1682 77.1899 28.0549 77.4047 26.8635C77.6 25.7698 78.9282 24.8909 81.8774 23.9534C83.7133 23.3674 85.4907 22.9573 85.5688 22.9573L85.9789 24.8713C83.0102 25.5159 80.0805 26.5706 79.3969 27.1956C79.9828 27.9377 82.7172 29.4612 85.5688 30.6135L84.8461 32.3909Z" fill="#084D2B"/>
</svg>
