<svg width="28" height="28" viewBox="0 0 28 28" fill="none" xmlns="http://www.w3.org/2000/svg">
<path opacity="0.4" d="M10.6849 6.66427L10.2151 5.60729C9.90795 4.91619 9.75437 4.57063 9.52469 4.30618C9.23683 3.97476 8.86162 3.73093 8.44187 3.60249C8.10693 3.5 7.72878 3.5 6.97249 3.5C5.86614 3.5 5.31296 3.5 4.84859 3.71267C4.30159 3.96319 3.80759 4.50716 3.61076 5.0757C3.44367 5.55834 3.49154 6.05433 3.58725 7.04632C4.60614 17.6052 10.395 23.3941 20.9539 24.413C21.9459 24.5087 22.442 24.5566 22.9245 24.3895C23.4931 24.1927 24.037 23.6986 24.2876 23.1517C24.5002 22.6872 24.5002 22.1341 24.5002 21.0278C24.5002 20.2714 24.5002 19.8933 24.3978 19.5583C24.2693 19.1386 24.0255 18.7634 23.694 18.4756C23.4297 18.2458 23.0841 18.0923 22.393 17.7851L21.336 17.3153C20.5875 16.9827 20.2133 16.8164 19.8331 16.7803C19.4691 16.7456 19.1021 16.7967 18.7615 16.9294C18.4055 17.068 18.091 17.3301 17.4617 17.8544C16.8354 18.3764 16.5223 18.6374 16.1396 18.7771C15.8004 18.901 15.3519 18.947 14.9947 18.8943C14.5916 18.8349 14.283 18.67 13.6657 18.3401C11.7454 17.3139 10.6864 16.2549 9.66009 14.3345C9.33024 13.7173 9.16532 13.4086 9.10592 13.0056C9.05327 12.6483 9.09917 12.1998 9.22309 11.8607C9.36288 11.478 9.62385 11.1648 10.1458 10.5385C10.6701 9.90929 10.9323 9.59469 11.0709 9.23873C11.2036 8.8981 11.2546 8.53113 11.22 8.16723C11.1838 7.78694 11.0175 7.41272 10.6849 6.66427Z" fill="#EAF3EF"/>
<path d="M10.6849 6.66427L10.2151 5.60729C9.90795 4.91619 9.75437 4.57063 9.52469 4.30618C9.23683 3.97476 8.86162 3.73093 8.44187 3.60249C8.10693 3.5 7.72878 3.5 6.97249 3.5C5.86614 3.5 5.31296 3.5 4.84859 3.71267C4.30159 3.96319 3.80759 4.50716 3.61076 5.0757C3.44367 5.55834 3.49154 6.05433 3.58725 7.04632C4.60614 17.6052 10.395 23.3941 20.9539 24.413C21.9459 24.5087 22.442 24.5566 22.9245 24.3895C23.4931 24.1927 24.037 23.6986 24.2876 23.1517C24.5002 22.6872 24.5002 22.1341 24.5002 21.0278C24.5002 20.2714 24.5002 19.8933 24.3978 19.5583C24.2693 19.1386 24.0255 18.7634 23.694 18.4756C23.4297 18.2458 23.0841 18.0923 22.393 17.7851L21.336 17.3153C20.5875 16.9827 20.2133 16.8164 19.8331 16.7803C19.4691 16.7456 19.1021 16.7967 18.7615 16.9294C18.4055 17.068 18.091 17.3301 17.4617 17.8544C16.8354 18.3764 16.5223 18.6374 16.1396 18.7771C15.8004 18.901 15.3519 18.947 14.9947 18.8943C14.5916 18.8349 14.283 18.67 13.6657 18.3401C11.7454 17.3139 10.6864 16.2549 9.66009 14.3345C9.33024 13.7173 9.16532 13.4086 9.10592 13.0057C9.05327 12.6483 9.09917 12.1998 9.22309 11.8607C9.36288 11.478 9.62385 11.1648 10.1458 10.5385C10.6701 9.90929 10.9323 9.59469 11.0709 9.23873C11.2036 8.8981 11.2546 8.53113 11.22 8.16723C11.1838 7.78694 11.0175 7.41272 10.6849 6.66427Z" stroke="#EAF3EF" stroke-linecap="round"/>
</svg>
